<svg width="16" height="16" viewBox="0 0 16 16" fill="none" xmlns="http://www.w3.org/2000/svg">
<path fill-rule="evenodd" clip-rule="evenodd" d="M5.86611 2.7998C3.87789 2.7998 2.26611 4.41158 2.26611 6.3998C2.26611 7.32157 2.61307 8.16326 3.18288 8.7999C3.33021 8.96451 3.58309 8.97852 3.7477 8.83119C3.91231 8.68386 3.92632 8.43098 3.77899 8.26637C3.33538 7.77073 3.06611 7.11719 3.06611 6.3998C3.06611 4.85341 4.31972 3.5998 5.86611 3.5998H7.99944C9.54584 3.5998 10.7994 4.85341 10.7994 6.3998C10.7994 7.9462 9.54584 9.1998 7.99944 9.1998H6.93278C6.71186 9.1998 6.53278 9.37889 6.53278 9.5998C6.53278 9.82072 6.71186 9.9998 6.93278 9.9998H7.99944C9.98767 9.9998 11.5994 8.38803 11.5994 6.3998C11.5994 4.41158 9.98767 2.7998 7.99944 2.7998H5.86611Z" fill="#413B89"/>
<path d="M5.19795 9.59902C5.19795 8.05263 6.45155 6.79902 7.99795 6.79902H9.06461C9.28553 6.79902 9.46461 6.61994 9.46461 6.39902C9.46461 6.17811 9.28553 5.99902 9.06461 5.99902H7.99795C6.00972 5.99902 4.39795 7.6108 4.39795 9.59902C4.39795 11.5872 6.00972 13.199 7.99795 13.199H10.1313C12.1195 13.199 13.7313 11.5872 13.7313 9.59902C13.7313 8.67725 13.3843 7.83557 12.8145 7.19892C12.6672 7.03431 12.4143 7.02031 12.2497 7.16764C12.0851 7.31497 12.0711 7.56785 12.2184 7.73246C12.662 8.22809 12.9313 8.88164 12.9313 9.59902C12.9313 11.1454 11.6777 12.399 10.1313 12.399H7.99795C6.45155 12.399 5.19795 11.1454 5.19795 9.59902Z" fill="#FFEDDE"/>
</svg>
