<svg width="16" height="16" viewBox="0 0 16 16" fill="none" xmlns="http://www.w3.org/2000/svg">
<path fill-rule="evenodd" clip-rule="evenodd" d="M5.86513 2.7998C3.87691 2.7998 2.26514 4.41158 2.26514 6.3998C2.26514 7.32157 2.61209 8.16326 3.1819 8.7999C3.32923 8.96451 3.58211 8.97852 3.74672 8.83119C3.91133 8.68386 3.92534 8.43098 3.77801 8.26637C3.3344 7.77073 3.06513 7.11719 3.06513 6.3998C3.06513 4.85341 4.31873 3.5998 5.86513 3.5998H7.99845C9.54484 3.5998 10.7984 4.85341 10.7984 6.3998C10.7984 7.9462 9.54484 9.1998 7.99845 9.1998H6.93179C6.71088 9.1998 6.53179 9.37889 6.53179 9.5998C6.53179 9.82072 6.71088 9.9998 6.93179 9.9998H7.99845C9.98667 9.9998 11.5984 8.38803 11.5984 6.3998C11.5984 4.41158 9.98667 2.7998 7.99845 2.7998H5.86513Z" fill="#413B89"/>
<path d="M5.19697 9.59902C5.19697 8.05263 6.45057 6.79902 7.99696 6.79902H9.06362C9.28454 6.79902 9.46362 6.61994 9.46362 6.39902C9.46362 6.17811 9.28454 5.99902 9.06362 5.99902H7.99696C6.00874 5.99902 4.39697 7.6108 4.39697 9.59902C4.39697 11.5872 6.00874 13.199 7.99696 13.199H10.1303C12.1185 13.199 13.7303 11.5872 13.7303 9.59902C13.7303 8.67725 13.3833 7.83557 12.8135 7.19892C12.6662 7.03431 12.4133 7.02031 12.2487 7.16764C12.0841 7.31497 12.0701 7.56785 12.2174 7.73246C12.661 8.22809 12.9303 8.88164 12.9303 9.59902C12.9303 11.1454 11.6767 12.399 10.1303 12.399H7.99696C6.45057 12.399 5.19697 11.1454 5.19697 9.59902Z" fill="#FFEDDE"/>
</svg>
