<svg width="16" height="16" viewBox="0 0 16 16" fill="none" xmlns="http://www.w3.org/2000/svg">
<path d="M3.29061 5.82406C2.66577 6.4489 2.66577 7.45456 2.66577 9.46589C2.66577 11.4772 2.66577 12.4829 3.29061 13.1077C3.91545 13.7326 4.92111 13.7326 6.93244 13.7326H9.06577C11.0771 13.7326 12.0828 13.7326 12.7076 13.1077C13.3324 12.4829 13.3324 11.4772 13.3324 9.46589C13.3324 7.45456 13.3324 6.4489 12.7076 5.82406C12.0828 5.19922 11.0771 5.19922 9.06577 5.19922H6.93244C4.92111 5.19922 3.91545 5.19922 3.29061 5.82406Z" fill="#0EAD69"/>
<path d="M10.1379 7.33412C10.4324 7.33412 10.6712 7.09534 10.6712 6.80079C10.6712 6.50624 10.4324 6.26746 10.1379 6.26746C9.84334 6.26746 9.60456 6.50624 9.60456 6.80079C9.60456 7.09534 9.84334 7.33412 10.1379 7.33412Z" fill="#FFEDDE"/>
<path d="M6.40456 6.80079C6.40456 7.09534 6.16578 7.33412 5.87122 7.33412C5.57667 7.33412 5.33789 7.09534 5.33789 6.80079C5.33789 6.50624 5.57667 6.26746 5.87122 6.26746C6.16578 6.26746 6.40456 6.50624 6.40456 6.80079Z" fill="#FFEDDE"/>
<path d="M8.03177 2.66589H7.9763C7.49712 2.66588 7.09753 2.66587 6.78032 2.70851C6.44549 2.75353 6.1432 2.85255 5.90028 3.09547C5.65736 3.33839 5.55834 3.64068 5.51332 3.97551C5.47068 4.29272 5.47069 4.6923 5.4707 5.17148L5.4707 5.21294C5.71445 5.20497 5.98022 5.20163 6.2707 5.20023V5.19923C6.2707 4.68509 6.27155 4.33972 6.30619 4.0821C6.33928 3.83599 6.39646 3.73066 6.46597 3.66116C6.53547 3.59166 6.6408 3.53447 6.88691 3.50138C7.14453 3.46674 7.4899 3.4659 8.00404 3.4659C8.51818 3.4659 8.86354 3.46674 9.12116 3.50138C9.36727 3.53447 9.47261 3.59166 9.54211 3.66116C9.61161 3.73066 9.6688 3.83599 9.70188 4.0821C9.73652 4.33972 9.73737 4.68509 9.73737 5.19923V5.20023C10.0279 5.20163 10.2936 5.20497 10.5374 5.21294V5.1715C10.5374 4.69232 10.5374 4.29272 10.4947 3.97551C10.4497 3.64068 10.3507 3.33839 10.1078 3.09547C9.86488 2.85255 9.56258 2.75353 9.22776 2.70851C8.91055 2.66587 8.51095 2.66588 8.03177 2.66589Z" fill="#FFEDDE"/>
</svg>
