<svg width="16" height="16" viewBox="0 0 16 16" fill="none" xmlns="http://www.w3.org/2000/svg">
<path d="M4.21387 6.72842C4.21387 6.51381 4.38648 6.33984 4.59941 6.33984H6.65563C6.86856 6.33984 7.04117 6.51381 7.04117 6.72842C7.04117 6.94302 6.86856 7.11699 6.65563 7.11699H4.59941C4.38648 7.11699 4.21387 6.94302 4.21387 6.72842Z" fill="#0EAD69"/>
<path fill-rule="evenodd" clip-rule="evenodd" d="M12.9068 6.9356C12.8736 6.93357 12.8375 6.93358 12.8 6.9336L12.7906 6.9336H11.321C10.1095 6.9336 9.073 7.8595 9.073 9.06693C9.073 10.2744 10.1095 11.2003 11.321 11.2003H12.7906L12.8 11.2003C12.8375 11.2003 12.8736 11.2003 12.9068 11.1983C13.3989 11.1681 13.834 10.7942 13.8706 10.272C13.873 10.2377 13.873 10.2008 13.873 10.1666L13.873 10.1573V7.97656L13.873 7.96727C13.873 7.93306 13.873 7.89615 13.8706 7.8619C13.834 7.33967 13.3989 6.96577 12.9068 6.9356ZM11.1906 9.63581C11.5025 9.63581 11.7553 9.38111 11.7553 9.06692C11.7553 8.75273 11.5025 8.49803 11.1906 8.49803C10.8788 8.49803 10.6259 8.75273 10.6259 9.06692C10.6259 9.38111 10.8788 9.63581 11.1906 9.63581Z" fill="#FFEDDE"/>
<path d="M12.8742 6.93494C12.8742 6.30527 12.8513 5.62984 12.4488 5.14563C12.4099 5.09889 12.3685 5.0535 12.3245 5.00945C11.9254 4.61033 11.4193 4.4332 10.794 4.34913C10.1864 4.26744 9.41006 4.26745 8.42993 4.26746H7.30307C6.32294 4.26745 5.5466 4.26744 4.93902 4.34913C4.31373 4.4332 3.80763 4.61033 3.4085 5.00945C3.00937 5.40858 2.83224 5.91469 2.74818 6.53998C2.66649 7.14756 2.6665 7.92389 2.6665 8.90402V8.96421C2.6665 9.94434 2.66649 10.7207 2.74818 11.3283C2.83224 11.9536 3.00937 12.4597 3.4085 12.8588C3.80763 13.2579 4.31373 13.435 4.93902 13.5191C5.5466 13.6008 6.32293 13.6008 7.30305 13.6008H8.42991C9.41004 13.6008 10.1864 13.6008 10.794 13.5191C11.4193 13.435 11.9254 13.2579 12.3245 12.8588C12.4336 12.7497 12.5262 12.6325 12.6049 12.5067C12.8452 12.123 12.8742 11.6527 12.8742 11.2C12.8485 11.2008 12.8214 11.2008 12.7935 11.2008L11.3144 11.2008C10.103 11.2008 9.06649 10.2749 9.06649 9.06746C9.06649 7.86002 10.103 6.93413 11.3144 6.93413L12.7935 6.93412C12.8213 6.93411 12.8485 6.9341 12.8742 6.93494Z" fill="#0EAD69"/>
<path d="M6.99294 2.97102L5.87217 3.72858L4.94775 4.34715C5.55488 4.26588 6.33026 4.26589 7.30874 4.26589H8.4356C9.41573 4.26589 10.1921 4.26588 10.7996 4.34757C10.9219 4.364 11.0395 4.38398 11.1527 4.40849L10.1388 3.73256L9.01216 2.97102C8.41026 2.56418 7.59484 2.56418 6.99294 2.97102Z" fill="#FFEDDE"/>
</svg>
