<svg width="16" height="16" viewBox="0 0 16 16" fill="none" xmlns="http://www.w3.org/2000/svg">
<path fill-rule="evenodd" clip-rule="evenodd" d="M5.86611 2.79968C3.87789 2.79968 2.26611 4.41146 2.26611 6.39968C2.26611 7.32145 2.61307 8.16314 3.18288 8.79978C3.33021 8.96439 3.58309 8.9784 3.7477 8.83107C3.91231 8.68374 3.92632 8.43086 3.77899 8.26625C3.33538 7.77061 3.06611 7.11707 3.06611 6.39968C3.06611 4.85329 4.31972 3.59968 5.86611 3.59968H7.99944C9.54584 3.59968 10.7994 4.85329 10.7994 6.39968C10.7994 7.94608 9.54584 9.19968 7.99944 9.19968H6.93278C6.71186 9.19968 6.53278 9.37877 6.53278 9.59968C6.53278 9.8206 6.71186 9.99968 6.93278 9.99968H7.99944C9.98767 9.99968 11.5994 8.38791 11.5994 6.39968C11.5994 4.41146 9.98767 2.79968 7.99944 2.79968H5.86611Z" fill="#413B89"/>
<path d="M5.1977 9.5989C5.1977 8.0525 6.45131 6.7989 7.9977 6.7989H9.06437C9.28528 6.7989 9.46437 6.61982 9.46437 6.3989C9.46437 6.17799 9.28528 5.9989 9.06437 5.9989H7.9977C6.00948 5.9989 4.39771 7.61068 4.39771 9.5989C4.39771 11.5871 6.00948 13.1989 7.9977 13.1989H10.131C12.1193 13.1989 13.731 11.5871 13.731 9.5989C13.731 8.67713 13.3841 7.83544 12.8143 7.1988C12.6669 7.03419 12.4141 7.02018 12.2495 7.16751C12.0848 7.31484 12.0708 7.56772 12.2182 7.73233C12.6618 8.22797 12.931 8.88151 12.931 9.5989C12.931 11.1453 11.6774 12.3989 10.131 12.3989H7.9977C6.45131 12.3989 5.1977 11.1453 5.1977 9.5989Z" fill="#FFEDDE"/>
</svg>
