<svg width="16" height="16" viewBox="0 0 16 16" fill="none" xmlns="http://www.w3.org/2000/svg">
<path fill-rule="evenodd" clip-rule="evenodd" d="M5.86513 2.79968C3.87691 2.79968 2.26514 4.41146 2.26514 6.39968C2.26514 7.32145 2.61209 8.16314 3.1819 8.79978C3.32923 8.96439 3.58211 8.9784 3.74672 8.83107C3.91133 8.68374 3.92534 8.43086 3.77801 8.26625C3.3344 7.77061 3.06513 7.11707 3.06513 6.39968C3.06513 4.85329 4.31873 3.59968 5.86513 3.59968H7.99845C9.54484 3.59968 10.7984 4.85329 10.7984 6.39968C10.7984 7.94608 9.54484 9.19968 7.99845 9.19968H6.93179C6.71088 9.19968 6.53179 9.37877 6.53179 9.59968C6.53179 9.8206 6.71088 9.99968 6.93179 9.99968H7.99845C9.98667 9.99968 11.5984 8.38791 11.5984 6.39968C11.5984 4.41146 9.98667 2.79968 7.99845 2.79968H5.86513Z" fill="#413B89"/>
<path d="M5.19721 9.5989C5.19721 8.0525 6.45081 6.7989 7.99721 6.7989H9.06387C9.28478 6.7989 9.46387 6.61982 9.46387 6.3989C9.46387 6.17799 9.28478 5.9989 9.06387 5.9989H7.99721C6.00899 5.9989 4.39722 7.61068 4.39722 9.5989C4.39722 11.5871 6.00899 13.1989 7.99721 13.1989H10.1305C12.1188 13.1989 13.7305 11.5871 13.7305 9.5989C13.7305 8.67713 13.3836 7.83544 12.8138 7.1988C12.6664 7.03419 12.4136 7.02018 12.2489 7.16751C12.0843 7.31484 12.0703 7.56772 12.2177 7.73233C12.6613 8.22797 12.9305 8.88151 12.9305 9.5989C12.9305 11.1453 11.6769 12.3989 10.1305 12.3989H7.99721C6.45081 12.3989 5.19721 11.1453 5.19721 9.5989Z" fill="#FFEDDE"/>
</svg>
