<svg width="16" height="16" viewBox="0 0 16 16" fill="none" xmlns="http://www.w3.org/2000/svg">
<path d="M3.29085 5.82406C2.66602 6.4489 2.66602 7.45456 2.66602 9.46589C2.66602 11.4772 2.66602 12.4829 3.29085 13.1077C3.91569 13.7326 4.92136 13.7326 6.93268 13.7326H9.06601C11.0773 13.7326 12.083 13.7326 12.7078 13.1077C13.3327 12.4829 13.3327 11.4772 13.3327 9.46589C13.3327 7.45456 13.3327 6.4489 12.7078 5.82406C12.083 5.19922 11.0773 5.19922 9.06601 5.19922H6.93268C4.92136 5.19922 3.91569 5.19922 3.29085 5.82406Z" fill="#0EAD69"/>
<path d="M10.1379 7.33424C10.4324 7.33424 10.6712 7.09546 10.6712 6.80091C10.6712 6.50636 10.4324 6.26758 10.1379 6.26758C9.84334 6.26758 9.60456 6.50636 9.60456 6.80091C9.60456 7.09546 9.84334 7.33424 10.1379 7.33424Z" fill="#FFEDDE"/>
<path d="M6.40456 6.80091C6.40456 7.09546 6.16578 7.33424 5.87122 7.33424C5.57667 7.33424 5.33789 7.09546 5.33789 6.80091C5.33789 6.50636 5.57667 6.26758 5.87122 6.26758C6.16578 6.26758 6.40456 6.50636 6.40456 6.80091Z" fill="#FFEDDE"/>
<path d="M8.03177 2.66602H7.9763C7.49712 2.666 7.09753 2.66599 6.78032 2.70864C6.44549 2.75365 6.1432 2.85268 5.90028 3.09559C5.65736 3.33851 5.55834 3.6408 5.51332 3.97563C5.47068 4.29284 5.47069 4.69242 5.4707 5.1716L5.4707 5.21306C5.71445 5.20509 5.98022 5.20175 6.2707 5.20036V5.19935C6.2707 4.68521 6.27155 4.33985 6.30619 4.08223C6.33928 3.83611 6.39646 3.73078 6.46597 3.66128C6.53547 3.59178 6.6408 3.53459 6.88691 3.5015C7.14453 3.46687 7.4899 3.46602 8.00404 3.46602C8.51818 3.46602 8.86354 3.46687 9.12116 3.5015C9.36727 3.53459 9.47261 3.59178 9.54211 3.66128C9.61161 3.73078 9.6688 3.83611 9.70188 4.08223C9.73652 4.33985 9.73737 4.68521 9.73737 5.19935V5.20036C10.0279 5.20175 10.2936 5.20509 10.5374 5.21306V5.17162C10.5374 4.69244 10.5374 4.29284 10.4947 3.97563C10.4497 3.6408 10.3507 3.33851 10.1078 3.09559C9.86488 2.85268 9.56258 2.75365 9.22776 2.70864C8.91055 2.66599 8.51095 2.666 8.03177 2.66602Z" fill="#FFEDDE"/>
</svg>
