<svg width="54" height="54" viewBox="0 0 54 54" fill="none" xmlns="http://www.w3.org/2000/svg">
<path opacity="0.5" d="M23.9961 13.0536C26.364 10.2203 27.548 8.80371 28.909 9.02191C30.27 9.2401 30.9067 10.9486 32.1801 14.3657L32.5096 15.2497C32.8715 16.2207 33.0524 16.7062 33.4044 17.0638C33.7565 17.4215 34.2398 17.6108 35.2064 17.9894L36.0864 18.334C39.4879 19.6663 41.1886 20.3324 41.3826 21.6939C41.5766 23.0554 40.1353 24.2106 37.2528 26.5211L36.507 27.1188C35.6879 27.7754 35.2783 28.1036 35.0413 28.553C34.8042 29.0023 34.7664 29.5219 34.6909 30.561L34.6222 31.507C34.3565 35.1636 34.2237 36.9919 32.9825 37.6152C31.7414 38.2385 30.2139 37.2439 27.159 35.2548L26.3687 34.7402C25.5005 34.175 25.0665 33.8923 24.5679 33.8124C24.0694 33.7325 23.5627 33.8643 22.5495 34.1279L21.627 34.3679C18.0613 35.2956 16.2784 35.7594 15.3174 34.7831C14.3564 33.8068 14.8536 32.0369 15.8481 28.4971L16.1054 27.5814C16.388 26.5755 16.5293 26.0725 16.4582 25.5738C16.3872 25.075 16.1118 24.6369 15.5611 23.7608L15.0597 22.9631C13.1216 19.8798 12.1526 18.3382 12.7998 17.1115C13.447 15.8848 15.2818 15.7855 18.9513 15.5869L19.9007 15.5356C20.9435 15.4791 21.4649 15.4509 21.9195 15.2226C22.3742 14.9943 22.7106 14.5917 23.3835 13.7866L23.9961 13.0536Z" fill="#2684FC"/>
<path d="M32.8527 24.6402C31.0767 22.5152 30.1888 21.4528 29.168 21.6164C28.1472 21.7801 27.6697 23.0614 26.7146 25.6242L26.4675 26.2872C26.1961 27.0155 26.0604 27.3796 25.7964 27.6479C25.5324 27.9161 25.1699 28.0581 24.4449 28.342L23.7849 28.6005C21.2338 29.5997 19.9583 30.0993 19.8128 31.1204C19.6673 32.1415 20.7483 33.0079 22.9102 34.7408L23.4695 35.1891C24.0838 35.6815 24.391 35.9277 24.5688 36.2647C24.7466 36.6017 24.7749 36.9914 24.8315 37.7707L24.8831 38.4802C25.0823 41.2227 25.182 42.5939 26.1128 43.0614C27.0437 43.5288 28.1893 42.7829 30.4805 41.2911L31.0732 40.9051C31.7243 40.4812 32.0499 40.2692 32.4238 40.2093C32.7977 40.1493 33.1777 40.2482 33.9376 40.4459L34.6295 40.6259C37.3038 41.3217 38.6409 41.6696 39.3617 40.9373C40.0825 40.2051 39.7095 38.8777 38.9637 36.2228L38.7707 35.536C38.5587 34.7816 38.4528 34.4044 38.5061 34.0303C38.5594 33.6562 38.7659 33.3277 39.1789 32.6705L39.555 32.0723C41.0085 29.7598 41.7353 28.6036 41.2499 27.6836C40.7645 26.7636 39.3884 26.6891 36.6362 26.5402L35.9242 26.5016C35.1421 26.4593 34.7511 26.4381 34.4101 26.2669C34.0691 26.0957 33.8168 25.7938 33.3121 25.1899L32.8527 24.6402Z" fill="#413B89"/>
</svg>
