<svg width="16" height="16" viewBox="0 0 16 16" fill="none" xmlns="http://www.w3.org/2000/svg">
<path d="M4.21387 6.72842C4.21387 6.51381 4.38648 6.33984 4.59941 6.33984H6.65563C6.86856 6.33984 7.04117 6.51381 7.04117 6.72842C7.04117 6.94302 6.86856 7.11699 6.65563 7.11699H4.59941C4.38648 7.11699 4.21387 6.94302 4.21387 6.72842Z" fill="#0EAD69"/>
<path fill-rule="evenodd" clip-rule="evenodd" d="M12.9071 6.9356C12.8739 6.93357 12.8377 6.93358 12.8002 6.9336L12.7909 6.9336H11.3212C10.1098 6.9336 9.07324 7.8595 9.07324 9.06693C9.07324 10.2744 10.1098 11.2003 11.3212 11.2003H12.7909L12.8002 11.2003C12.8377 11.2003 12.8739 11.2003 12.9071 11.1983C13.3991 11.1681 13.8343 10.7942 13.8709 10.272C13.8733 10.2377 13.8733 10.2008 13.8732 10.1666L13.8732 10.1573V7.97656L13.8732 7.96727C13.8733 7.93306 13.8733 7.89615 13.8709 7.8619C13.8343 7.33967 13.3991 6.96577 12.9071 6.9356ZM11.1909 9.63581C11.5028 9.63581 11.7556 9.38111 11.7556 9.06692C11.7556 8.75273 11.5028 8.49803 11.1909 8.49803C10.879 8.49803 10.6262 8.75273 10.6262 9.06692C10.6262 9.38111 10.879 9.63581 11.1909 9.63581Z" fill="#FFEDDE"/>
<path d="M12.8747 6.93506C12.8747 6.3054 12.8518 5.62996 12.4493 5.14575C12.4104 5.09901 12.369 5.05363 12.325 5.00957C11.9259 4.61045 11.4197 4.43332 10.7945 4.34925C10.1869 4.26756 9.41055 4.26757 8.43042 4.26758H7.30356C6.32343 4.26757 5.54709 4.26756 4.93951 4.34925C4.31422 4.43332 3.80811 4.61045 3.40899 5.00958C3.00986 5.4087 2.83273 5.91481 2.74866 6.5401C2.66698 7.14768 2.66698 7.92401 2.66699 8.90415V8.96433C2.66698 9.94447 2.66698 10.7208 2.74866 11.3284C2.83273 11.9537 3.00986 12.4598 3.40899 12.8589C3.80811 13.258 4.31422 13.4352 4.93951 13.5192C5.54709 13.6009 6.32341 13.6009 7.30354 13.6009H8.4304C9.41053 13.6009 10.1869 13.6009 10.7945 13.5192C11.4197 13.4352 11.9259 13.258 12.325 12.8589C12.4341 12.7498 12.5267 12.6326 12.6054 12.5068C12.8457 12.1231 12.8747 11.6528 12.8747 11.2001C12.8489 11.2009 12.8218 11.2009 12.794 11.2009L11.3149 11.2009C10.1035 11.2009 9.06698 10.275 9.06698 9.06758C9.06698 7.86015 10.1035 6.93425 11.3149 6.93425L12.794 6.93425C12.8218 6.93424 12.8489 6.93423 12.8747 6.93506Z" fill="#0EAD69"/>
<path d="M6.99343 2.97114L5.87266 3.7287L4.94824 4.34728C5.55536 4.266 6.33075 4.26601 7.30923 4.26602H8.43608C9.41622 4.26601 10.1925 4.266 10.8001 4.34769C10.9223 4.36412 11.04 4.38411 11.1532 4.40861L10.1393 3.73268L9.01265 2.97114C8.41075 2.56431 7.59533 2.56431 6.99343 2.97114Z" fill="#FFEDDE"/>
</svg>
