<svg width="54" height="51" viewBox="0 0 54 51" fill="none" xmlns="http://www.w3.org/2000/svg">
<path d="M0.0566406 0H44.9434C49.914 0 53.9434 4.02944 53.9434 9V42C53.9434 46.9706 49.914 51 44.9434 51H0.0566406V0Z" fill="#FFCB00" fill-opacity="0.7"/>
<path d="M24.1532 18.4084C25.4198 16.1361 26.0531 15 27 15C27.9469 15 28.5802 16.1361 29.8468 18.4084L30.1745 18.9962C30.5345 19.6419 30.7144 19.9648 30.9951 20.1778C31.2757 20.3908 31.6251 20.4699 32.3241 20.628L32.9605 20.772C35.4201 21.3286 36.65 21.6068 36.9426 22.5477C37.2352 23.4886 36.3968 24.4691 34.7199 26.4299L34.2861 26.9372C33.8096 27.4944 33.5713 27.773 33.4641 28.1177C33.357 28.4624 33.393 28.8341 33.465 29.5776L33.5306 30.2544C33.7841 32.8706 33.9109 34.1787 33.1449 34.7602C32.3788 35.3417 31.2273 34.8115 28.9243 33.7512L28.3285 33.4768C27.6741 33.1755 27.3469 33.0248 27 33.0248C26.6531 33.0248 26.3259 33.1755 25.6715 33.4768L25.0757 33.7512C22.7727 34.8115 21.6212 35.3417 20.8551 34.7602C20.0891 34.1787 20.2159 32.8706 20.4694 30.2544L20.535 29.5776C20.607 28.8341 20.643 28.4624 20.5359 28.1177C20.4287 27.773 20.1904 27.4944 19.7139 26.9372L19.2801 26.4299C17.6032 24.4691 16.7648 23.4886 17.0574 22.5477C17.35 21.6068 18.5799 21.3286 21.0395 20.772L21.6759 20.628C22.3749 20.4699 22.7243 20.3908 23.0049 20.1778C23.2856 19.9648 23.4655 19.6419 23.8255 18.9962L24.1532 18.4084Z" fill="white"/>
</svg>
