<svg width="54" height="51" viewBox="0 0 54 51" fill="none" xmlns="http://www.w3.org/2000/svg">
<path d="M0.0566406 0H44.9434C49.914 0 53.9434 4.02944 53.9434 9V42C53.9434 46.9706 49.914 51 44.9434 51H0.0566406V0Z" fill="#FFA78D"/>
<path opacity="0.5" d="M27.7949 15H25.7949C23.9093 15 22.9665 15 22.3807 15.5858C21.7949 16.1716 21.7949 17.1144 21.7949 19V21V22.5H31.7949V21V19C31.7949 17.1144 31.7949 16.1716 31.2091 15.5858C30.6233 15 29.6805 15 27.7949 15Z" fill="white"/>
<path fill-rule="evenodd" clip-rule="evenodd" d="M28.2304 18.7831C27.3352 18.295 26.2533 18.295 25.358 18.7831L20.5638 21.3973C19.5998 21.9229 19 22.9332 19 24.0312V28.9688C19 30.0668 19.5998 31.0771 20.5638 31.6027L25.358 34.2169C26.2533 34.705 27.3352 34.705 28.2304 34.2169L33.0246 31.6027C33.9886 31.0771 34.5885 30.0668 34.5885 28.9688V24.0312C34.5885 22.9332 33.9886 21.9229 33.0246 21.3973L28.2304 18.7831ZM26.7944 23.5C26.5104 23.5 26.3204 23.8408 25.9404 24.5225L25.8421 24.6989C25.7341 24.8926 25.6801 24.9894 25.5959 25.0533C25.5117 25.1172 25.4069 25.141 25.1972 25.1884L25.0063 25.2316C24.2684 25.3986 23.8994 25.482 23.8117 25.7643C23.7239 26.0466 23.9754 26.3407 24.4785 26.929L24.6086 27.0812C24.7516 27.2483 24.823 27.3319 24.8552 27.4353C24.8873 27.5387 24.8765 27.6502 24.8549 27.8733L24.8353 28.0763C24.7592 28.8612 24.7212 29.2536 24.951 29.4281C25.1808 29.6025 25.5262 29.4435 26.2171 29.1254L26.3959 29.0431C26.5922 28.9527 26.6904 28.9075 26.7944 28.9075C26.8985 28.9075 26.9967 28.9527 27.193 29.0431L27.3717 29.1254C28.0626 29.4435 28.4081 29.6025 28.6379 29.4281C28.8677 29.2536 28.8297 28.8612 28.7536 28.0763L28.7339 27.8733C28.7123 27.6502 28.7015 27.5387 28.7337 27.4353C28.7658 27.3319 28.8373 27.2483 28.9802 27.0812L29.1104 26.929C29.6135 26.3407 29.865 26.0466 29.7772 25.7643C29.6894 25.482 29.3205 25.3986 28.5826 25.2316L28.3917 25.1884C28.182 25.141 28.0771 25.1172 27.993 25.0533C27.9088 24.9894 27.8548 24.8926 27.7468 24.6989L27.6485 24.5225C27.2685 23.8408 27.0785 23.5 26.7944 23.5Z" fill="white"/>
</svg>
