<svg width="740" height="158" viewBox="0 0 740 158" fill="none" xmlns="http://www.w3.org/2000/svg">
<path d="M4.40118 4L70.8095 109.6L137.218 154.4L203.626 42.4L270.034 23.2L336.443 151.2L402.851 98.4L469.259 74.4L535.667 31.2L602.076 88.8L668.484 64.8L734.892 148" stroke="#07657C"/>
<path d="M4.40118 7C6.42512 7 8.06585 5.65685 8.06585 4C8.06585 2.34315 6.42512 1 4.40118 1C2.37724 1 0.736511 2.34315 0.736511 4C0.736511 5.65685 2.37724 7 4.40118 7Z" fill="white" stroke="#07657C"/>
<path d="M70.8094 112.6C72.8334 112.6 74.4741 111.257 74.4741 109.6C74.4741 107.943 72.8334 106.6 70.8094 106.6C68.7855 106.6 67.1448 107.943 67.1448 109.6C67.1448 111.257 68.7855 112.6 70.8094 112.6Z" fill="white" stroke="#07657C"/>
<path d="M137.218 157.4C139.242 157.4 140.882 156.057 140.882 154.4C140.882 152.743 139.242 151.4 137.218 151.4C135.194 151.4 133.553 152.743 133.553 154.4C133.553 156.057 135.194 157.4 137.218 157.4Z" fill="white" stroke="#07657C"/>
<path d="M203.626 45.4C205.65 45.4 207.291 44.0569 207.291 42.4C207.291 40.7432 205.65 39.4 203.626 39.4C201.602 39.4 199.961 40.7432 199.961 42.4C199.961 44.0569 201.602 45.4 203.626 45.4Z" fill="white" stroke="#07657C"/>
<path d="M270.034 26.2C272.058 26.2 273.699 24.8568 273.699 23.2C273.699 21.5431 272.058 20.2 270.034 20.2C268.01 20.2 266.37 21.5431 266.37 23.2C266.37 24.8568 268.01 26.2 270.034 26.2Z" fill="white" stroke="#07657C"/>
<path d="M336.443 154.2C338.467 154.2 340.107 152.857 340.107 151.2C340.107 149.543 338.467 148.2 336.443 148.2C334.419 148.2 332.778 149.543 332.778 151.2C332.778 152.857 334.419 154.2 336.443 154.2Z" fill="white" stroke="#07657C"/>
<path d="M402.851 101.4C404.875 101.4 406.515 100.057 406.515 98.4C406.515 96.7432 404.875 95.4 402.851 95.4C400.827 95.4 399.186 96.7432 399.186 98.4C399.186 100.057 400.827 101.4 402.851 101.4Z" fill="white" stroke="#07657C"/>
<path d="M469.259 77.4C471.283 77.4 472.924 76.0569 472.924 74.4C472.924 72.7432 471.283 71.4 469.259 71.4C467.235 71.4 465.594 72.7432 465.594 74.4C465.594 76.0569 467.235 77.4 469.259 77.4Z" fill="white" stroke="#07657C"/>
<path d="M535.667 34.2C537.691 34.2 539.332 32.8568 539.332 31.2C539.332 29.5431 537.691 28.2 535.667 28.2C533.643 28.2 532.003 29.5431 532.003 31.2C532.003 32.8568 533.643 34.2 535.667 34.2Z" fill="white" stroke="#07657C"/>
<path d="M602.076 91.8C604.1 91.8 605.74 90.4569 605.74 88.8C605.74 87.1432 604.1 85.8 602.076 85.8C600.052 85.8 598.411 87.1432 598.411 88.8C598.411 90.4569 600.052 91.8 602.076 91.8Z" fill="white" stroke="#07657C"/>
<path d="M668.484 67.8001C670.508 67.8001 672.149 66.4569 672.149 64.8001C672.149 63.1432 670.508 61.8 668.484 61.8C666.46 61.8 664.819 63.1432 664.819 64.8001C664.819 66.4569 666.46 67.8001 668.484 67.8001Z" fill="white" stroke="#07657C"/>
<path d="M734.892 151C736.916 151 738.557 149.657 738.557 148C738.557 146.343 736.916 145 734.892 145C732.868 145 731.228 146.343 731.228 148C731.228 149.657 732.868 151 734.892 151Z" fill="white" stroke="#07657C"/>
</svg>
