<svg width="740" height="158" viewBox="0 0 740 158" fill="none" xmlns="http://www.w3.org/2000/svg">
<path d="M4.40112 4L70.8094 109.6L137.218 154.4L203.626 42.4L270.034 23.2L336.442 151.2L402.851 98.4L469.259 74.4L535.667 31.2L602.076 88.8L668.484 64.8L734.892 148" stroke="#07657C"/>
<path d="M4.40124 7C6.42518 7 8.06591 5.65685 8.06591 4C8.06591 2.34315 6.42518 1 4.40124 1C2.3773 1 0.736572 2.34315 0.736572 4C0.736572 5.65685 2.3773 7 4.40124 7Z" fill="white" stroke="#07657C"/>
<path d="M70.8094 112.6C72.8334 112.6 74.4741 111.256 74.4741 109.6C74.4741 107.943 72.8334 106.6 70.8094 106.6C68.7855 106.6 67.1448 107.943 67.1448 109.6C67.1448 111.256 68.7855 112.6 70.8094 112.6Z" fill="white" stroke="#07657C"/>
<path d="M137.218 157.4C139.242 157.4 140.883 156.057 140.883 154.4C140.883 152.744 139.242 151.4 137.218 151.4C135.194 151.4 133.553 152.744 133.553 154.4C133.553 156.057 135.194 157.4 137.218 157.4Z" fill="white" stroke="#07657C"/>
<path d="M203.626 45.4004C205.65 45.4004 207.291 44.0572 207.291 42.4004C207.291 40.7435 205.65 39.4004 203.626 39.4004C201.602 39.4004 199.961 40.7435 199.961 42.4004C199.961 44.0572 201.602 45.4004 203.626 45.4004Z" fill="white" stroke="#07657C"/>
<path d="M270.034 26.2002C272.058 26.2002 273.699 24.857 273.699 23.2002C273.699 21.5433 272.058 20.2002 270.034 20.2002C268.01 20.2002 266.37 21.5433 266.37 23.2002C266.37 24.857 268.01 26.2002 270.034 26.2002Z" fill="white" stroke="#07657C"/>
<path d="M336.443 154.2C338.466 154.2 340.107 152.857 340.107 151.2C340.107 149.543 338.466 148.2 336.443 148.2C334.419 148.2 332.778 149.543 332.778 151.2C332.778 152.857 334.419 154.2 336.443 154.2Z" fill="white" stroke="#07657C"/>
<path d="M402.851 101.4C404.875 101.4 406.516 100.057 406.516 98.4004C406.516 96.7435 404.875 95.4004 402.851 95.4004C400.827 95.4004 399.186 96.7435 399.186 98.4004C399.186 100.057 400.827 101.4 402.851 101.4Z" fill="white" stroke="#07657C"/>
<path d="M469.259 77.4004C471.283 77.4004 472.924 76.0572 472.924 74.4004C472.924 72.7435 471.283 71.4004 469.259 71.4004C467.235 71.4004 465.594 72.7435 465.594 74.4004C465.594 76.0572 467.235 77.4004 469.259 77.4004Z" fill="white" stroke="#07657C"/>
<path d="M535.667 34.2002C537.691 34.2002 539.332 32.857 539.332 31.2002C539.332 29.5433 537.691 28.2002 535.667 28.2002C533.643 28.2002 532.003 29.5433 532.003 31.2002C532.003 32.857 533.643 34.2002 535.667 34.2002Z" fill="white" stroke="#07657C"/>
<path d="M602.076 91.7998C604.1 91.7998 605.74 90.4567 605.74 88.7998C605.74 87.143 604.1 85.7998 602.076 85.7998C600.052 85.7998 598.411 87.143 598.411 88.7998C598.411 90.4567 600.052 91.7998 602.076 91.7998Z" fill="white" stroke="#07657C"/>
<path d="M668.484 67.7998C670.508 67.7998 672.149 66.4567 672.149 64.7998C672.149 63.143 670.508 61.7998 668.484 61.7998C666.46 61.7998 664.819 63.143 664.819 64.7998C664.819 66.4567 666.46 67.7998 668.484 67.7998Z" fill="white" stroke="#07657C"/>
<path d="M734.892 151C736.916 151 738.557 149.657 738.557 148C738.557 146.343 736.916 145 734.892 145C732.868 145 731.228 146.343 731.228 148C731.228 149.657 732.868 151 734.892 151Z" fill="white" stroke="#07657C"/>
</svg>
