<svg width="25" height="24" viewBox="0 0 25 24" fill="none" xmlns="http://www.w3.org/2000/svg">
<path fill-rule="evenodd" clip-rule="evenodd" d="M11.4545 3.892C11.8938 3.45267 12.6062 3.45267 13.0455 3.892L19.7955 10.642C20.2348 11.0813 20.2348 11.7937 19.7955 12.233C19.3562 12.6723 18.6438 12.6723 18.2045 12.233L12.25 6.27849L6.2955 12.233C5.85616 12.6723 5.14384 12.6723 4.7045 12.233C4.26517 11.7937 4.26517 11.0813 4.7045 10.642L11.4545 3.892Z" fill="#21272A"/>
<path fill-rule="evenodd" clip-rule="evenodd" d="M12.25 4.5C12.8713 4.5 13.375 5.00368 13.375 5.625V19.3125C13.375 19.9338 12.8713 20.4375 12.25 20.4375C11.6287 20.4375 11.125 19.9338 11.125 19.3125V5.625C11.125 5.00368 11.6287 4.5 12.25 4.5Z" fill="#21272A"/>
</svg>
