<svg width="48" height="48" viewBox="0 0 48 48" fill="none" xmlns="http://www.w3.org/2000/svg">
<path fill-rule="evenodd" clip-rule="evenodd" d="M4.5 24C4.5 13.2341 13.2341 4.5 24 4.5C34.7659 4.5 43.5 13.2341 43.5 24C43.5 34.7659 34.7659 43.5 24 43.5C13.2341 43.5 4.5 34.7659 4.5 24ZM24 7.5C14.8909 7.5 7.5 14.8909 7.5 24C7.5 33.1091 14.8909 40.5 24 40.5C33.1091 40.5 40.5 33.1091 40.5 24C40.5 14.8909 33.1091 7.5 24 7.5Z" fill="#21272A"/>
<path fill-rule="evenodd" clip-rule="evenodd" d="M16.9393 16.9393C17.5251 16.3536 18.4749 16.3536 19.0607 16.9393L31.0607 28.9393C31.6464 29.5251 31.6464 30.4749 31.0607 31.0607C30.4749 31.6464 29.5251 31.6464 28.9393 31.0607L16.9393 19.0607C16.3536 18.4749 16.3536 17.5251 16.9393 16.9393Z" fill="#21272A"/>
<path fill-rule="evenodd" clip-rule="evenodd" d="M31.0607 16.9393C31.6464 17.5251 31.6464 18.4749 31.0607 19.0607L19.0607 31.0607C18.4749 31.6464 17.5251 31.6464 16.9393 31.0607C16.3536 30.4749 16.3536 29.5251 16.9393 28.9393L28.9393 16.9393C29.5251 16.3536 30.4749 16.3536 31.0607 16.9393Z" fill="#21272A"/>
</svg>
