<svg width="24" height="24" viewBox="0 0 24 24" fill="none" xmlns="http://www.w3.org/2000/svg">
<path d="M21.8865 10.0505H11.994V14.1503H17.6869C17.1571 16.7555 14.939 18.2524 11.994 18.2524C11.1699 18.2539 10.3537 18.0925 9.59209 17.7778C8.83049 17.463 8.13852 17.001 7.55586 16.4182C6.97321 15.8356 6.51133 15.1434 6.19673 14.3817C5.88213 13.6202 5.721 12.8039 5.72256 11.9797C5.72116 11.1558 5.8824 10.3396 6.19708 9.57812C6.51175 8.8166 6.97365 8.12468 7.55629 7.54204C8.13892 6.9594 8.83085 6.4975 9.59237 6.18283C10.3539 5.86816 11.17 5.7069 11.994 5.70832C13.4897 5.70832 14.8416 6.23935 15.9025 7.10778L18.9913 4.02016C17.1096 2.37953 14.6967 1.36735 11.994 1.36735C10.5991 1.36328 9.21709 1.63502 7.92755 2.16696C6.638 2.6989 5.46635 3.48054 4.47998 4.46692C3.4936 5.4533 2.71196 6.62495 2.18003 7.91449C1.64809 9.20403 1.37634 10.586 1.38042 11.9809C1.37618 13.376 1.64782 14.758 2.17971 16.0477C2.71159 17.3373 3.49322 18.5089 4.47963 19.4954C5.46604 20.4818 6.63775 21.2634 7.92736 21.7953C9.21697 22.3271 10.599 22.5988 11.994 22.5945C17.3008 22.5945 22.1265 18.7348 22.1265 11.9809C22.1265 11.3537 22.0302 10.6777 21.8865 10.0505Z" fill="#1A1A1A"/>
</svg>
