<svg width="24" height="24" viewBox="0 0 24 24" fill="none" xmlns="http://www.w3.org/2000/svg">
<path d="M21.8865 10.0503H11.994V14.1502H17.6869C17.1571 16.7554 14.939 18.2523 11.994 18.2523C11.1699 18.2537 10.3537 18.0924 9.59209 17.7777C8.83049 17.4629 8.13852 17.0009 7.55586 16.4181C6.97321 15.8354 6.51133 15.1433 6.19673 14.3816C5.88213 13.62 5.721 12.8037 5.72256 11.9796C5.72116 11.1557 5.8824 10.3395 6.19708 9.578C6.51175 8.81648 6.97365 8.12455 7.55629 7.54191C8.13892 6.95927 8.83085 6.49738 9.59237 6.18271C10.3539 5.86804 11.17 5.70678 11.994 5.70819C13.4897 5.70819 14.8416 6.23923 15.9025 7.10766L18.9913 4.02004C17.1096 2.37941 14.6967 1.36723 11.994 1.36723C10.5991 1.36316 9.21709 1.6349 7.92755 2.16684C6.638 2.69878 5.46635 3.48042 4.47998 4.4668C3.4936 5.45317 2.71196 6.62483 2.18003 7.91437C1.64809 9.2039 1.37634 10.5859 1.38042 11.9808C1.37618 13.3758 1.64782 14.7579 2.17971 16.0475C2.71159 17.3372 3.49322 18.5088 4.47963 19.4952C5.46604 20.4817 6.63775 21.2633 7.92736 21.7952C9.21697 22.327 10.599 22.5987 11.994 22.5944C17.3008 22.5944 22.1265 18.7347 22.1265 11.9808C22.1265 11.3536 22.0302 10.6776 21.8865 10.0503Z" fill="#1A1A1A"/>
</svg>
