<svg width="112" height="112" viewBox="0 0 112 112" fill="none" xmlns="http://www.w3.org/2000/svg">
<path d="M87.5 10.5H24.5C20.7882 10.5041 17.2296 11.9804 14.605 14.605C11.9804 17.2296 10.5041 20.7882 10.5 24.5V87.5C10.5041 91.2118 11.9804 94.7704 14.605 97.395C17.2296 100.02 20.7882 101.496 24.5 101.5H87.5C91.2118 101.496 94.7704 100.02 97.395 97.395C100.02 94.7704 101.496 91.2118 101.5 87.5V24.5C101.496 20.7882 100.02 17.2296 97.395 14.605C94.7704 11.9804 91.2118 10.5041 87.5 10.5ZM79.6797 40.7509L50.2797 75.7509C49.9572 76.1351 49.5559 76.4454 49.103 76.6609C48.6501 76.8764 48.1562 76.992 47.6547 77H47.5956C47.105 76.9998 46.62 76.8965 46.1719 76.6968C45.7238 76.4971 45.3228 76.2054 44.9947 75.8406L32.3947 61.8406C32.0747 61.5012 31.8258 61.1013 31.6625 60.6643C31.4993 60.2273 31.4251 59.7621 31.4442 59.2961C31.4634 58.83 31.5755 58.3725 31.7739 57.9503C31.9724 57.5282 32.2533 57.15 32.6 56.838C32.9468 56.5259 33.3524 56.2864 33.793 56.1333C34.2337 55.9803 34.7005 55.9169 35.166 55.9468C35.6315 55.9768 36.0863 56.0995 36.5037 56.3077C36.9211 56.5159 37.2927 56.8055 37.5966 57.1594L47.5037 68.1669L74.3203 36.2491C74.9218 35.5536 75.7729 35.1228 76.6895 35.0498C77.6061 34.9767 78.5146 35.2673 79.2187 35.8587C79.9227 36.4502 80.3658 37.2949 80.452 38.2103C80.5383 39.1258 80.2609 40.0384 79.6797 40.7509Z" fill="#21272A"/>
</svg>
