<svg width="28" height="28" viewBox="0 0 28 28" fill="none" xmlns="http://www.w3.org/2000/svg">
<path fill-rule="evenodd" clip-rule="evenodd" d="M8.16667 9.33333C8.16667 6.11067 10.7773 3.5 14 3.5C17.2227 3.5 19.8333 6.11067 19.8333 9.33333V10.5H22.1667C23.9167 10.5 24.5 11.34 24.5 12.3667V23.45C24.5 24.7387 23.4553 25.7833 22.1667 25.7833H5.83333C4.54467 25.7833 3.5 24.7387 3.5 23.45V12.3667C3.5 11.34 4.08333 10.5 5.65833 10.5H8.16667V9.33333ZM17.5 9.33333V10.5H10.5V9.33333C10.5 7.39933 12.066 5.83333 14 5.83333C15.934 5.83333 17.5 7.39933 17.5 9.33333ZM14 14C12.7113 14 11.6014 15.0463 11.6667 16.3333C11.7099 17.1848 12.1436 17.8508 12.8333 18.1785V19.8333C12.8333 20.3166 13.0401 21.5833 14 21.5833C14.9599 21.5833 15.1667 20.3166 15.1667 19.8333V18.1785C15.8564 17.8508 16.2901 17.1848 16.3333 16.3333C16.3986 15.0463 15.2887 14 14 14Z" fill="#1A1A1A" fill-opacity="0.36"/>
</svg>
