<svg width="67" height="30" viewBox="0 0 67 30" fill="none" xmlns="http://www.w3.org/2000/svg">
<g clip-path="url(#clip0_158_735)">
<path d="M15.9037 0C13.2871 0 10.7778 1.21005 8.92766 3.36396L2.88956 10.3934C1.0394 12.5473 0 15.4686 0 18.5147C0 24.8579 4.41697 30 9.86558 30C12.4821 30 14.9914 28.7899 16.8416 26.636L21.0182 21.7737C21.0182 21.7736 21.0182 21.7738 21.0182 21.7737L33.1873 7.6066C34.071 6.57791 35.2694 6 36.519 6C38.6112 6 40.3848 7.58741 40.9998 9.78407L44.8404 5.31296C43.0883 2.11834 40.0162 0 36.519 0C33.9025 0 31.3932 1.21005 29.543 3.36396L13.1973 22.3934C12.3137 23.4221 11.1152 24 9.86558 24C7.26335 24 5.15385 21.5442 5.15385 18.5147C5.15385 17.0599 5.65026 15.6647 6.53387 14.636L12.5719 7.6066C13.4556 6.57791 14.654 6 15.9037 6C17.9959 6 19.7695 7.58748 20.3844 9.78421L24.2251 5.31307C22.473 2.1184 19.4009 0 15.9037 0Z" fill="#394149"/>
<path d="M33.8126 22.3934C32.929 23.4221 31.7305 24 30.4809 24C28.389 24 26.6155 22.413 26.0004 20.2167L22.1599 24.6877C23.912 27.8819 26.984 30 30.4809 30C33.0974 30 35.6067 28.7899 37.4569 26.636L53.8026 7.6066C54.6863 6.57791 55.8847 6 57.1343 6C59.7366 6 61.8461 8.45584 61.8461 11.4853C61.8461 12.9401 61.3497 14.3353 60.466 15.364L54.428 22.3934C53.5443 23.4221 52.3459 24 51.0963 24C49.0042 24 47.2306 22.4127 46.6156 20.2162L42.7751 24.6873C44.5272 27.8818 47.5992 30 51.0963 30C53.7128 30 56.2221 28.7899 58.0723 26.636L64.1103 19.6066C65.9605 17.4527 66.9999 14.5314 66.9999 11.4853C66.9999 5.14214 62.583 0 57.1343 0C54.5178 0 52.0085 1.21005 50.1584 3.36396L33.8126 22.3934Z" fill="#394149"/>
</g>
<defs>
<clipPath id="clip0_158_735">
<rect width="67" height="30" fill="white"/>
</clipPath>
</defs>
</svg>
