<svg width="146" height="146" viewBox="0 0 146 146" fill="none" xmlns="http://www.w3.org/2000/svg">
<path fill-rule="evenodd" clip-rule="evenodd" d="M73 146C113.317 146 146 113.317 146 73C146 32.6832 113.317 0 73 0C32.6832 0 0 32.6832 0 73C0 113.317 32.6832 146 73 146ZM73 132.312C105.757 132.312 132.312 105.757 132.312 73C132.312 40.2426 105.757 13.6875 73 13.6875C40.2426 13.6875 13.6875 40.2426 13.6875 73C13.6875 105.757 40.2426 132.312 73 132.312Z" fill="#2F006B"/>
<path fill-rule="evenodd" clip-rule="evenodd" d="M79.8266 0.319497C76.0675 -0.0335649 73 3.06043 73 6.8361C73 10.6118 76.0709 13.6319 79.8215 14.066C82.6557 14.394 85.4571 14.9255 88.2045 15.6539C91.3595 16.4882 94.4115 17.576 97.3373 18.8941C100.326 20.2385 103.211 21.8341 105.96 23.671C115.211 29.8522 122.527 38.503 127.088 48.6245C128.405 51.5404 129.492 54.5817 130.327 57.7257C132.654 66.4582 132.964 75.6426 131.187 84.5738C130.942 85.807 130.658 87.0294 130.336 88.2395C129.501 91.3918 128.412 94.4411 127.093 97.3644C124.158 103.88 120.056 109.845 114.951 114.95C109.846 120.055 103.881 124.157 97.367 127.092C94.443 128.411 91.3929 129.5 88.2397 130.336C87.0297 130.658 85.8073 130.941 84.5741 131.187C75.6426 132.963 66.4579 132.654 57.7252 130.327C54.5814 129.491 51.5402 128.404 48.6245 127.088C38.5032 122.527 29.8525 115.211 23.6713 105.96C20.0196 100.495 17.3217 94.4919 15.6548 88.206C14.9261 85.458 14.3945 82.656 14.0663 79.8211C13.6322 76.0705 10.6121 72.9996 6.83646 72.9996C3.0608 72.9996 -0.0331986 76.0671 0.319863 79.8262C1.44954 91.8542 5.55144 103.452 12.3027 113.556C20.3241 125.561 31.7251 134.918 45.0641 140.443C58.4031 145.968 73.081 147.414 87.2416 144.597C101.402 141.78 114.41 134.828 124.619 124.618C134.828 114.409 141.781 101.402 144.597 87.2412C147.414 73.0806 145.968 58.4028 140.443 45.0638C134.918 31.7248 125.561 20.3237 113.557 12.3024C103.453 5.55107 91.8545 1.44918 79.8266 0.319497Z" fill="#0469FF"/>
</svg>
