<svg width="21" height="19" viewBox="0 0 21 19" fill="none" xmlns="http://www.w3.org/2000/svg">
<path d="M9.23633 0.635766C9.80195 -0.189537 11.0199 -0.189537 11.5855 0.635767L14.1423 4.36634C14.3274 4.63651 14.6001 4.83459 14.9142 4.92721L19.2523 6.20599C20.212 6.48889 20.5884 7.64725 19.9782 8.44022L17.2203 12.0246C17.0206 12.2842 16.9165 12.6047 16.9255 12.9321L17.0498 17.453C17.0773 18.4532 16.0919 19.1691 15.1492 18.8339L10.888 17.3186C10.5794 17.2088 10.2424 17.2088 9.93383 17.3186L5.67262 18.8339C4.72993 19.1691 3.74457 18.4532 3.77207 17.453L3.89641 12.9321C3.90542 12.6047 3.80128 12.2842 3.60155 12.0246L0.843636 8.44022C0.233511 7.64725 0.609887 6.48889 1.56958 6.20599L5.90764 4.92721C6.22181 4.83459 6.49444 4.63651 6.67961 4.36634L9.23633 0.635766Z" fill="#FFB525"/>
</svg>
