<svg width="20" height="19" viewBox="0 0 20 19" fill="none" xmlns="http://www.w3.org/2000/svg">
<path d="M8.68311 0.63601C9.24872 -0.189293 10.4667 -0.189292 11.0323 0.636011L13.589 4.36658C13.7742 4.63675 14.0468 4.83484 14.361 4.92745L18.6991 6.20623C19.6588 6.48913 20.0351 7.6475 19.425 8.44046L16.6671 12.0249C16.4674 12.2844 16.3632 12.605 16.3722 12.9324L16.4966 17.4533C16.5241 18.4534 15.5387 19.1693 14.596 18.8341L10.3348 17.3188C10.0262 17.2091 9.68921 17.2091 9.38061 17.3188L5.1194 18.8341C4.17671 19.1693 3.19134 18.4534 3.21885 17.4533L3.34319 12.9324C3.3522 12.605 3.24806 12.2844 3.04833 12.0249L0.290413 8.44046C-0.319712 7.64749 0.0566643 6.48913 1.01636 6.20623L5.35441 4.92745C5.66858 4.83484 5.94122 4.63675 6.12638 4.36658L8.68311 0.63601Z" fill="#FFB525"/>
</svg>
