<svg width="21" height="19" viewBox="0 0 21 19" fill="none" xmlns="http://www.w3.org/2000/svg">
<path d="M9.51416 0.63601C10.0798 -0.189293 11.2978 -0.189292 11.8634 0.636011L14.4201 4.36658C14.6053 4.63675 14.8779 4.83484 15.1921 4.92745L19.5301 6.20623C20.4898 6.48913 20.8662 7.6475 20.2561 8.44046L17.4982 12.0249C17.2984 12.2844 17.1943 12.605 17.2033 12.9324L17.3276 17.4533C17.3551 18.4534 16.3698 19.1693 15.4271 18.8341L11.1659 17.3188C10.8573 17.2091 10.5203 17.2091 10.2117 17.3188L5.95046 18.8341C5.00776 19.1693 4.0224 18.4534 4.04991 17.4533L4.17425 12.9324C4.18325 12.605 4.07911 12.2844 3.87938 12.0249L1.12147 8.44046C0.511343 7.64749 0.887719 6.48913 1.84741 6.20623L6.18547 4.92745C6.49964 4.83484 6.77228 4.63675 6.95744 4.36658L9.51416 0.63601Z" fill="#49454F" fill-opacity="0.8"/>
</svg>
