<svg width="21" height="19" viewBox="0 0 21 19" fill="none" xmlns="http://www.w3.org/2000/svg">
<path d="M9.51416 0.635766C10.0798 -0.189537 11.2978 -0.189537 11.8634 0.635767L14.4201 4.36634C14.6053 4.63651 14.8779 4.83459 15.1921 4.92721L19.5301 6.20599C20.4898 6.48889 20.8662 7.64725 20.2561 8.44022L17.4982 12.0246C17.2984 12.2842 17.1943 12.6047 17.2033 12.9321L17.3276 17.453C17.3551 18.4532 16.3698 19.1691 15.4271 18.8339L11.1659 17.3186C10.8573 17.2088 10.5203 17.2088 10.2117 17.3186L5.95046 18.8339C5.00776 19.1691 4.0224 18.4532 4.04991 17.453L4.17425 12.9321C4.18325 12.6047 4.07911 12.2842 3.87938 12.0246L1.12147 8.44022C0.511343 7.64725 0.887719 6.48889 1.84741 6.20599L6.18547 4.92721C6.49964 4.83459 6.77228 4.63651 6.95744 4.36634L9.51416 0.635766Z" fill="#49454F" fill-opacity="0.8"/>
</svg>
