<svg width="21" height="19" viewBox="0 0 21 19" fill="none" xmlns="http://www.w3.org/2000/svg">
<path d="M9.23658 0.63601C9.80219 -0.189293 11.0202 -0.189292 11.5858 0.636011L14.1425 4.36658C14.3277 4.63675 14.6003 4.83484 14.9145 4.92745L19.2525 6.20623C20.2122 6.48913 20.5886 7.6475 19.9785 8.44046L17.2206 12.0249C17.0208 12.2844 16.9167 12.605 16.9257 12.9324L17.05 17.4533C17.0775 18.4534 16.0922 19.1693 15.1495 18.8341L10.8883 17.3188C10.5797 17.2091 10.2427 17.2091 9.93408 17.3188L5.67287 18.8341C4.73017 19.1693 3.74481 18.4534 3.77232 17.4533L3.89666 12.9324C3.90566 12.605 3.80152 12.2844 3.60179 12.0249L0.84388 8.44046C0.233755 7.64749 0.610131 6.48913 1.56983 6.20623L5.90788 4.92745C6.22205 4.83484 6.49469 4.63675 6.67985 4.36658L9.23658 0.63601Z" fill="#FFB525"/>
</svg>
