<svg width="20" height="19" viewBox="0 0 20 19" fill="none" xmlns="http://www.w3.org/2000/svg">
<path d="M8.95996 0.635766C9.52558 -0.189537 10.7436 -0.189537 11.3092 0.635767L13.8659 4.36634C14.0511 4.63651 14.3237 4.83459 14.6379 4.92721L18.9759 6.20599C19.9356 6.48889 20.312 7.64725 19.7019 8.44022L16.944 12.0246C16.7442 12.2842 16.6401 12.6047 16.6491 12.9321L16.7734 17.453C16.8009 18.4532 15.8156 19.1691 14.8729 18.8339L10.6117 17.3186C10.3031 17.2088 9.96607 17.2088 9.65747 17.3186L5.39626 18.8339C4.45356 19.1691 3.4682 18.4532 3.49571 17.453L3.62005 12.9321C3.62905 12.6047 3.52491 12.2842 3.32518 12.0246L0.567269 8.44022C-0.0428561 7.64725 0.33352 6.48889 1.29322 6.20599L5.63127 4.92721C5.94544 4.83459 6.21808 4.63651 6.40324 4.36634L8.95996 0.635766Z" fill="#FFB525"/>
</svg>
