<svg width="20" height="19" viewBox="0 0 20 19" fill="none" xmlns="http://www.w3.org/2000/svg">
<path d="M8.96021 0.63601C9.52582 -0.189293 10.7438 -0.189292 11.3094 0.636011L13.8661 4.36658C14.0513 4.63675 14.3239 4.83484 14.6381 4.92745L18.9762 6.20623C19.9359 6.48913 20.3122 7.6475 19.7021 8.44046L16.9442 12.0249C16.7445 12.2844 16.6403 12.605 16.6493 12.9324L16.7737 17.4533C16.8012 18.4534 15.8158 19.1693 14.8731 18.8341L10.6119 17.3188C10.3033 17.2091 9.96631 17.2091 9.65771 17.3188L5.3965 18.8341C4.45381 19.1693 3.46844 18.4534 3.49595 17.4533L3.62029 12.9324C3.6293 12.605 3.52516 12.2844 3.32543 12.0249L0.567513 8.44046C-0.042612 7.64749 0.333764 6.48913 1.29346 6.20623L5.63151 4.92745C5.94568 4.83484 6.21832 4.63675 6.40348 4.36658L8.96021 0.63601Z" fill="#FFB525"/>
</svg>
