<svg width="21" height="19" viewBox="0 0 21 19" fill="none" xmlns="http://www.w3.org/2000/svg">
<path d="M9.40552 0.63601C9.97114 -0.189293 11.1891 -0.189292 11.7547 0.636011L14.3115 4.36658C14.4966 4.63675 14.7693 4.83484 15.0834 4.92745L19.4215 6.20623C20.3812 6.48913 20.7575 7.6475 20.1474 8.44046L17.3895 12.0249C17.1898 12.2844 17.0856 12.605 17.0946 12.9324L17.219 17.4533C17.2465 18.4534 16.2611 19.1693 15.3184 18.8341L11.0572 17.3188C10.7486 17.2091 10.4116 17.2091 10.103 17.3188L5.84181 18.8341C4.89912 19.1693 3.91376 18.4534 3.94126 17.4533L4.0656 12.9324C4.07461 12.605 3.97047 12.2844 3.77074 12.0249L1.01283 8.44046C0.402701 7.64749 0.779076 6.48913 1.73877 6.20623L6.07683 4.92745C6.391 4.83484 6.66363 4.63675 6.8488 4.36658L9.40552 0.63601Z" fill="#FFB525"/>
</svg>
