<svg width="20" height="19" viewBox="0 0 20 19" fill="none" xmlns="http://www.w3.org/2000/svg">
<path d="M8.68262 0.635766C9.24824 -0.189537 10.4662 -0.189537 11.0318 0.635767L13.5886 4.36634C13.7737 4.63651 14.0464 4.83459 14.3605 4.92721L18.6986 6.20599C19.6583 6.48889 20.0346 7.64725 19.4245 8.44022L16.6666 12.0246C16.4669 12.2842 16.3627 12.6047 16.3717 12.9321L16.4961 17.453C16.5236 18.4532 15.5382 19.1691 14.5955 18.8339L10.3343 17.3186C10.0257 17.2088 9.68873 17.2088 9.38012 17.3186L5.11891 18.8339C4.17622 19.1691 3.19086 18.4532 3.21836 17.453L3.3427 12.9321C3.35171 12.6047 3.24757 12.2842 3.04784 12.0246L0.289925 8.44022C-0.3202 7.64725 0.0561761 6.48889 1.01587 6.20599L5.35393 4.92721C5.6681 4.83459 5.94073 4.63651 6.1259 4.36634L8.68262 0.635766Z" fill="#FFB525"/>
</svg>
