<svg width="21" height="19" viewBox="0 0 21 19" fill="none" xmlns="http://www.w3.org/2000/svg">
<path d="M9.40528 0.635766C9.97089 -0.189537 11.1889 -0.189537 11.7545 0.635767L14.3112 4.36634C14.4964 4.63651 14.769 4.83459 15.0832 4.92721L19.4212 6.20599C20.3809 6.48889 20.7573 7.64725 20.1472 8.44022L17.3893 12.0246C17.1895 12.2842 17.0854 12.6047 17.0944 12.9321L17.2187 17.453C17.2463 18.4532 16.2609 19.1691 15.3182 18.8339L11.057 17.3186C10.7484 17.2088 10.4114 17.2088 10.1028 17.3186L5.84157 18.8339C4.89888 19.1691 3.91351 18.4532 3.94102 17.453L4.06536 12.9321C4.07436 12.6047 3.97023 12.2842 3.77049 12.0246L1.01258 8.44022C0.402456 7.64725 0.778832 6.48889 1.73853 6.20599L6.07658 4.92721C6.39075 4.83459 6.66339 4.63651 6.84855 4.36634L9.40528 0.635766Z" fill="#FFB525"/>
</svg>
