<svg width="146" height="146" viewBox="0 0 146 146" fill="none" xmlns="http://www.w3.org/2000/svg">
<path d="M79.6938 0.0275601C75.9271 -0.32621 72.8535 2.774 72.8535 6.55724C72.8535 10.3405 75.9306 13.3666 79.6887 13.8016C82.5286 14.1303 85.3356 14.6629 88.0885 15.3928C91.2498 16.2287 94.3079 17.3187 97.2396 18.6395C100.234 19.9865 103.125 21.5853 105.88 23.4259C115.15 29.6196 122.48 38.2877 127.05 48.4294C128.369 51.3512 129.459 54.3987 130.296 57.5489C132.627 66.299 132.938 75.5018 131.157 84.4509C130.912 85.6866 130.627 86.9115 130.305 88.1239C129.468 91.2826 128.377 94.338 127.055 97.2671C124.115 103.795 120.003 109.773 114.888 114.888C109.774 120.003 103.797 124.114 97.2694 127.054C94.3396 128.376 91.2833 129.467 88.1238 130.305C86.9114 130.627 85.6865 130.912 84.4509 131.157C75.5015 132.938 66.2983 132.627 57.548 130.296C54.398 129.458 51.3507 128.369 48.4291 127.05C38.2875 122.48 29.6195 115.149 23.4259 105.88C19.7668 100.404 17.0635 94.3889 15.3933 88.0904C14.6631 85.3369 14.1304 82.5292 13.8016 79.6887C13.3666 75.9306 10.3405 72.8535 6.55724 72.8535C2.774 72.8535 -0.32621 75.9271 0.0275601 79.6938C1.15951 91.7459 5.26963 103.367 12.0345 113.492C20.0719 125.52 31.4958 134.896 44.8616 140.432C58.2274 145.968 72.9347 147.417 87.1237 144.594C101.313 141.772 114.346 134.806 124.576 124.576C134.806 114.346 141.772 101.313 144.594 87.1237C147.417 72.9347 145.968 58.2274 140.432 44.8616C134.896 31.4958 125.52 20.0719 113.492 12.0345C103.367 5.26963 91.7459 1.15951 79.6938 0.0275601Z" fill="#878D96"/>
</svg>
