<svg width="146" height="146" viewBox="0 0 146 146" fill="none" xmlns="http://www.w3.org/2000/svg">
<path fill-rule="evenodd" clip-rule="evenodd" d="M79.8265 0.319497C76.0674 -0.0335649 72.9999 3.06043 72.9999 6.8361C72.9999 10.6118 76.0708 13.6319 79.8214 14.066C82.6555 14.394 85.457 14.9255 88.2043 15.6539C91.3593 16.4882 94.4113 17.576 97.3372 18.8941C100.326 20.2385 103.211 21.8341 105.96 23.671C115.211 29.8522 122.527 38.503 127.088 48.6245C128.404 51.5404 129.492 54.5817 130.327 57.7257C132.654 66.4582 132.964 75.6426 131.187 84.5738C130.942 85.807 130.658 87.0294 130.336 88.2395C129.501 91.3918 128.412 94.4411 127.093 97.3644C124.158 103.88 120.055 109.845 114.95 114.95C109.846 120.055 103.881 124.157 97.3669 127.092C94.4429 128.411 91.3928 129.5 88.2396 130.336C87.0296 130.658 85.8072 130.941 84.574 131.187C75.6425 132.963 66.4578 132.654 57.725 130.327C54.5813 129.491 51.5401 128.404 48.6244 127.088C38.5031 122.527 29.8524 115.211 23.6712 105.96C20.0195 100.495 17.3216 94.4919 15.6547 88.206C14.926 85.458 14.3943 82.656 14.0662 79.8211C13.6321 76.0705 10.612 72.9996 6.83634 72.9996C3.06068 72.9996 -0.0333202 76.0671 0.319742 79.8262C1.44942 91.8542 5.55132 103.452 12.3026 113.556C20.324 125.561 31.725 134.918 45.064 140.443C58.403 145.968 73.0809 147.414 87.2415 144.597C101.402 141.78 114.409 134.828 124.619 124.618C134.828 114.409 141.78 101.402 144.597 87.2412C147.414 73.0806 145.968 58.4028 140.443 45.0638C134.918 31.7248 125.561 20.3237 113.557 12.3024C103.452 5.55107 91.8544 1.44918 79.8265 0.319497Z" fill="#0469FF"/>
</svg>
