<svg width="16" height="16" viewBox="0 0 16 16" fill="none" xmlns="http://www.w3.org/2000/svg">
<path d="M6 10L10 6" stroke="#828282" stroke-linecap="round" stroke-linejoin="round"/>
<path d="M7.33301 3.99955L7.64167 3.64222C8.26688 3.0171 9.1148 2.66595 9.99891 2.66602C10.883 2.66608 11.7309 3.01735 12.356 3.64255C12.9811 4.26776 13.3323 5.11568 13.3322 5.99979C13.3321 6.8839 12.9809 7.73177 12.3557 8.35689L11.9997 8.66622" stroke="#828282" stroke-linecap="round" stroke-linejoin="round"/>
<path d="M8.66709 11.9997L8.40242 12.3557C7.76992 12.9811 6.91628 13.3319 6.02675 13.3319C5.13723 13.3319 4.28359 12.9811 3.65109 12.3557C3.33932 12.0474 3.09182 11.6804 2.92289 11.2758C2.75397 10.8712 2.66699 10.4371 2.66699 9.99867C2.66699 9.56024 2.75397 9.12616 2.92289 8.72158C3.09182 8.31699 3.33932 7.94994 3.65109 7.64167L4.00042 7.33301" stroke="#828282" stroke-linecap="round" stroke-linejoin="round"/>
</svg>
