<svg width="16" height="16" viewBox="0 0 16 16" fill="none" xmlns="http://www.w3.org/2000/svg">
<path d="M10.6665 2V4.66667M5.33317 2V4.66667M2.6665 7.33333H13.3332M2.6665 4.66667C2.6665 4.31304 2.80698 3.97391 3.05703 3.72386C3.30708 3.47381 3.64622 3.33333 3.99984 3.33333H11.9998C12.3535 3.33333 12.6926 3.47381 12.9426 3.72386C13.1927 3.97391 13.3332 4.31304 13.3332 4.66667V12.6667C13.3332 13.0203 13.1927 13.3594 12.9426 13.6095C12.6926 13.8595 12.3535 14 11.9998 14H3.99984C3.64622 14 3.30708 13.8595 3.05703 13.6095C2.80698 13.3594 2.6665 13.0203 2.6665 12.6667V4.66667ZM5.33317 10H6.6665V11.3333H5.33317V10Z" stroke="#828282" stroke-linecap="round" stroke-linejoin="round"/>
</svg>
