<svg width="16" height="16" viewBox="0 0 16 16" fill="none" xmlns="http://www.w3.org/2000/svg">
<path d="M10.667 2V4.66667M5.33366 2V4.66667M2.66699 7.33333H13.3337M2.66699 4.66667C2.66699 4.31304 2.80747 3.97391 3.05752 3.72386C3.30756 3.47381 3.6467 3.33333 4.00033 3.33333H12.0003C12.3539 3.33333 12.6931 3.47381 12.9431 3.72386C13.1932 3.97391 13.3337 4.31304 13.3337 4.66667V12.6667C13.3337 13.0203 13.1932 13.3594 12.9431 13.6095C12.6931 13.8595 12.3539 14 12.0003 14H4.00033C3.6467 14 3.30756 13.8595 3.05752 13.6095C2.80747 13.3594 2.66699 13.0203 2.66699 12.6667V4.66667ZM5.33366 10H6.66699V11.3333H5.33366V10Z" stroke="#828282" stroke-linecap="round" stroke-linejoin="round"/>
</svg>
