<svg width="37" height="38" viewBox="0 0 37 38" fill="none" xmlns="http://www.w3.org/2000/svg">
<mask id="path-1-outside-1_101_11345" maskUnits="userSpaceOnUse" x="0" y="0" width="37" height="38" fill="black">
<rect fill="white" width="37" height="38"/>
<path fill-rule="evenodd" clip-rule="evenodd" d="M6 1C3.23858 1 1 3.23858 1 6V24C1 26.7614 3.23858 29 6 29H14.75L18 35.5L20.925 29H31C33.7614 29 36 26.7614 36 24V6C36 3.23858 33.7614 1 31 1H6Z"/>
</mask>
<path fill-rule="evenodd" clip-rule="evenodd" d="M6 1C3.23858 1 1 3.23858 1 6V24C1 26.7614 3.23858 29 6 29H14.75L18 35.5L20.925 29H31C33.7614 29 36 26.7614 36 24V6C36 3.23858 33.7614 1 31 1H6Z" fill="white"/>
<path d="M14.75 29L15.6444 28.5528L15.368 28H14.75V29ZM18 35.5L17.1056 35.9472L18.0476 37.8312L18.9119 35.9104L18 35.5ZM20.925 29V28H20.2784L20.0131 28.5896L20.925 29ZM2 6C2 3.79086 3.79086 2 6 2V0C2.68629 0 0 2.68629 0 6H2ZM2 24V6H0V24H2ZM6 28C3.79086 28 2 26.2091 2 24H0C0 27.3137 2.68629 30 6 30V28ZM14.75 28H6V30H14.75V28ZM13.8556 29.4472L17.1056 35.9472L18.8944 35.0528L15.6444 28.5528L13.8556 29.4472ZM18.9119 35.9104L21.8369 29.4104L20.0131 28.5896L17.0881 35.0896L18.9119 35.9104ZM31 28H20.925V30H31V28ZM35 24C35 26.2091 33.2091 28 31 28V30C34.3137 30 37 27.3137 37 24H35ZM35 6V24H37V6H35ZM31 2C33.2091 2 35 3.79086 35 6H37C37 2.68629 34.3137 0 31 0V2ZM6 2H31V0H6V2Z" fill="#2C62B4" mask="url(#path-1-outside-1_101_11345)"/>
</svg>
