<svg width="39" height="38" viewBox="0 0 39 38" fill="none" xmlns="http://www.w3.org/2000/svg">
<mask id="path-1-outside-1_1_1933" maskUnits="userSpaceOnUse" x="0.0189209" y="0" width="39" height="38" fill="black">
<rect fill="white" x="0.0189209" width="39" height="38"/>
<path fill-rule="evenodd" clip-rule="evenodd" d="M6.01892 1C3.2575 1 1.01892 3.23858 1.01892 6V24C1.01892 26.7614 3.25749 29 6.01892 29H15.2359L18.5963 35.5L21.6206 29H32.2076C34.969 29 37.2076 26.7614 37.2076 24V6C37.2076 3.23858 34.969 1 32.2076 1H6.01892Z"/>
</mask>
<path fill-rule="evenodd" clip-rule="evenodd" d="M6.01892 1C3.2575 1 1.01892 3.23858 1.01892 6V24C1.01892 26.7614 3.25749 29 6.01892 29H15.2359L18.5963 35.5L21.6206 29H32.2076C34.969 29 37.2076 26.7614 37.2076 24V6C37.2076 3.23858 34.969 1 32.2076 1H6.01892Z" fill="white"/>
<path d="M15.2359 29L16.1242 28.5408L15.8447 28H15.2359V29ZM18.5963 35.5L17.708 35.9592L18.6435 37.7689L19.503 35.9219L18.5963 35.5ZM21.6206 29V28H20.983L20.714 28.5781L21.6206 29ZM2.01892 6C2.01892 3.79086 3.80978 2 6.01892 2V0C2.70521 0 0.0189209 2.68629 0.0189209 6H2.01892ZM2.01892 24V6H0.0189209V24H2.01892ZM6.01892 28C3.80978 28 2.01892 26.2091 2.01892 24H0.0189209C0.0189209 27.3137 2.70521 30 6.01892 30V28ZM15.2359 28H6.01892V30H15.2359V28ZM14.3476 29.4592L17.708 35.9592L19.4846 35.0408L16.1242 28.5408L14.3476 29.4592ZM19.503 35.9219L22.5273 29.4219L20.714 28.5781L17.6896 35.0781L19.503 35.9219ZM32.2076 28H21.6206V30H32.2076V28ZM36.2076 24C36.2076 26.2091 34.4167 28 32.2076 28V30C35.5213 30 38.2076 27.3137 38.2076 24H36.2076ZM36.2076 6V24H38.2076V6H36.2076ZM32.2076 2C34.4167 2 36.2076 3.79086 36.2076 6H38.2076C38.2076 2.68629 35.5213 0 32.2076 0V2ZM6.01892 2H32.2076V0H6.01892V2Z" fill="#EBEBEB" mask="url(#path-1-outside-1_1_1933)"/>
</svg>
