<svg width="39" height="38" viewBox="0 0 39 38" fill="none" xmlns="http://www.w3.org/2000/svg">
<mask id="path-1-outside-1_101_11383" maskUnits="userSpaceOnUse" x="0.0187988" y="0" width="39" height="38" fill="black">
<rect fill="white" x="0.0187988" width="39" height="38"/>
<path fill-rule="evenodd" clip-rule="evenodd" d="M6.0188 1C3.25738 1 1.0188 3.23858 1.0188 6V24C1.0188 26.7614 3.25737 29 6.01879 29H15.2358L18.5962 35.5L21.6205 29H32.2075C34.9689 29 37.2075 26.7614 37.2075 24V6C37.2075 3.23858 34.9689 1 32.2075 1H6.0188Z"/>
</mask>
<path fill-rule="evenodd" clip-rule="evenodd" d="M6.0188 1C3.25738 1 1.0188 3.23858 1.0188 6V24C1.0188 26.7614 3.25737 29 6.01879 29H15.2358L18.5962 35.5L21.6205 29H32.2075C34.9689 29 37.2075 26.7614 37.2075 24V6C37.2075 3.23858 34.9689 1 32.2075 1H6.0188Z" fill="white"/>
<path d="M15.2358 29L16.1241 28.5408L15.8445 28H15.2358V29ZM18.5962 35.5L17.7079 35.9592L18.6434 37.7689L19.5028 35.9219L18.5962 35.5ZM21.6205 29V28H20.9828L20.7138 28.5781L21.6205 29ZM2.0188 6C2.0188 3.79086 3.80966 2 6.0188 2V0C2.70509 0 0.0187988 2.68629 0.0187988 6H2.0188ZM2.0188 24V6H0.0187988V24H2.0188ZM6.01879 28C3.80966 28 2.0188 26.2091 2.0188 24H0.0187988C0.0187988 27.3137 2.70509 30 6.01879 30V28ZM15.2358 28H6.01879V30H15.2358V28ZM14.3475 29.4592L17.7079 35.9592L19.4845 35.0408L16.1241 28.5408L14.3475 29.4592ZM19.5028 35.9219L22.5272 29.4219L20.7138 28.5781L17.6895 35.0781L19.5028 35.9219ZM32.2075 28H21.6205V30H32.2075V28ZM36.2075 24C36.2075 26.2091 34.4166 28 32.2075 28V30C35.5212 30 38.2075 27.3137 38.2075 24H36.2075ZM36.2075 6V24H38.2075V6H36.2075ZM32.2075 2C34.4166 2 36.2075 3.79086 36.2075 6H38.2075C38.2075 2.68629 35.5212 0 32.2075 0V2ZM6.0188 2H32.2075V0H6.0188V2Z" fill="#EBEBEB" mask="url(#path-1-outside-1_101_11383)"/>
</svg>
